<?xml version="1.0" standalone="no"?>
<!DOCTYPE svg PUBLIC "-//W3C//DTD SVG 20010904//EN"
 "http://www.w3.org/TR/2001/REC-SVG-20010904/DTD/svg10.dtd">
<svg version="1.0" xmlns="http://www.w3.org/2000/svg"
 width="225.000000pt" height="225.000000pt" viewBox="0 0 225.000000 225.000000"
 preserveAspectRatio="xMidYMid meet">

<g transform="translate(0.000000,225.000000) scale(0.100000,-0.100000)"
fill="#000000" stroke="none">
<path d="M916 2214 c-213 -42 -404 -143 -563 -297 -168 -163 -281 -377 -322
-611 -15 -85 -14 -291 3 -378 67 -352 289 -642 611 -799 55 -27 145 -61 200
-76 91 -24 117 -27 280 -27 166 -1 188 1 280 27 119 32 295 117 386 186 82 62
193 179 248 260 62 91 127 233 158 346 26 92 28 114 28 280 0 166 -2 188 -28
279 -54 193 -143 350 -279 492 -157 164 -366 276 -591 319 -98 19 -316 18
-411 -1z m354 -354 c150 -44 271 -164 322 -320 19 -58 22 -96 27 -370 7 -314
10 -338 49 -359 10 -5 83 -15 162 -21 135 -10 147 -13 168 -36 27 -30 28 -64
4 -95 -21 -25 -68 -33 -268 -45 l-121 -7 -99 92 c-97 89 -127 104 -152 79 -24
-24 -10 -50 98 -175 122 -143 134 -173 84 -212 -53 -41 -48 -44 -332 196 -34
29 -70 53 -78 53 -9 0 -60 -39 -112 -88 -204 -187 -210 -192 -247 -192 -24 0
-39 7 -54 26 -37 47 -38 45 107 229 66 83 83 111 80 133 -2 22 -9 28 -33 30
-27 3 -42 -8 -122 -93 l-92 -95 -98 1 c-54 0 -138 4 -186 7 -77 6 -92 10 -108
31 -24 30 -24 62 1 93 17 23 31 27 132 37 152 17 190 26 211 52 16 20 18 49
17 343 -1 352 2 378 61 482 55 97 169 191 273 224 100 32 195 32 306 0z"/>
<path d="M870 1481 c-99 -63 -115 -80 -105 -111 7 -23 187 -130 220 -130 28 0
48 30 38 56 -3 9 -33 33 -65 54 l-59 37 55 36 c68 45 81 66 60 95 -8 12 -23
22 -32 22 -10 0 -60 -27 -112 -59z"/>
<path d="M1221 1518 c-12 -33 2 -53 65 -95 l55 -36 -49 -29 c-71 -41 -88 -62
-74 -93 8 -17 20 -25 36 -25 28 0 213 108 221 129 11 28 -7 47 -103 109 -107
67 -138 75 -151 40z"/>
</g>
</svg>
